<?xml version="1.0" encoding="utf-8"?>
<!-- Generator: Adobe Illustrator 21.1.0, SVG Export Plug-In . SVG Version: 6.00 Build 0)  -->
<svg version="1.1" id="Layer_1" xmlns="http://www.w3.org/2000/svg" xmlns:xlink="http://www.w3.org/1999/xlink" x="0px" y="0px"
	 viewBox="0 0 137 111" style="enable-background:new 0 0 137 111;" xml:space="preserve">
<style type="text/css">
	.st0{fill:#AAD9F0;}
	.st1{fill:#72B1CB;}
	.st2{fill:#A2D1E4;}
	.st3{fill:none;stroke:#263346;stroke-width:2.5133;stroke-linecap:round;stroke-linejoin:round;stroke-miterlimit:10;}
	.st4{fill:#263346;}
	.st5{fill:#ACDAF0;}
	.st6{opacity:0.4;fill:#FFFFFF;}
	.st7{fill:#FFFFFF;}
	.st8{fill:#EBF7FD;}
	.st9{fill:#DAE9EE;}
</style>
<title>chico-smirk</title>
<desc>Created with Sketch.</desc>
<g>
	<path class="st0" d="M105,83.2c0,0,7,1.3,10.8,7.6c0.3,0.5-0.3,1.2-0.8,0.9c-2-1-5.1-2.3-6.9-1.3C105.3,91.9,105,83.2,105,83.2z"/>
	<path class="st0" d="M108,89.2c0,0,7,1.3,10.8,7.6c0.3,0.5-0.3,1.2-0.8,0.9c-2-1-5.1-2.3-6.9-1.3C108.3,98,108,89.2,108,89.2z"/>
	<path class="st0" d="M31.7,83.2c0,0-7,1.3-10.8,7.6c-0.3,0.5,0.3,1.2,0.8,0.9c2-1,5.1-2.3,6.9-1.3C31.4,91.9,31.7,83.2,31.7,83.2z"
		/>
	<path class="st0" d="M28.7,89.2c0,0-7,1.3-10.8,7.6c-0.3,0.5,0.3,1.2,0.8,0.9c2-1,5.1-2.3,6.9-1.3C28.3,98,28.7,89.2,28.7,89.2z"/>
	<path class="st0" d="M16.6,43.1c0,0-5.5,4.6-5.6,12c0,0.6,0.8,0.9,1.1,0.3c1.2-1.9,3.3-4.5,5.3-4.5C20.6,50.9,16.6,43.1,16.6,43.1z
		"/>
	<path class="st0" d="M17.2,57.3c0,0-3.6,6.2-1.2,13.1c0.2,0.6,1.1,0.5,1.2-0.1c0.5-2.2,1.5-5.4,3.5-6.1
		C23.7,63.2,17.2,57.3,17.2,57.3z"/>
	<path class="st0" d="M18.8,35.4c0,0-6.2,3.7-7.4,10.9c-0.1,0.6,0.7,1,1.1,0.5c1.5-1.7,3.9-4,6-3.6C21.6,43.7,18.8,35.4,18.8,35.4z"
		/>
	<path class="st0" d="M16.2,50.1c0,0-4.8,5.3-3.9,12.6c0.1,0.6,0.9,0.7,1.2,0.2c0.9-2,2.6-4.9,4.6-5.2
		C21.3,57.2,16.2,50.1,16.2,50.1z"/>
	<path class="st0" d="M119.5,57.3c0,0,3.6,6.2,1.2,13.1c-0.2,0.6-1.1,0.5-1.2-0.1c-0.5-2.2-1.5-5.4-3.5-6.1
		C113.1,63.2,119.5,57.3,119.5,57.3z"/>
	<path class="st0" d="M120.2,43.1c0,0,5.5,4.6,5.6,12c0,0.6-0.8,0.9-1.1,0.3c-1.2-1.9-3.3-4.5-5.3-4.5
		C116.1,50.9,120.2,43.1,120.2,43.1z"/>
	<path class="st0" d="M120.6,50.1c0,0,4.8,5.3,3.9,12.6c-0.1,0.6-0.9,0.7-1.2,0.2c-0.9-2-2.6-4.9-4.6-5.2
		C115.5,57.2,120.6,50.1,120.6,50.1z"/>
	<path class="st0" d="M118.3,35.4c0,0,6.2,3.7,7.4,10.9c0.1,0.6-0.7,1-1.1,0.5c-1.5-1.7-3.9-4-6-3.6
		C115.6,43.7,118.3,35.4,118.3,35.4z"/>
	<path class="st0" d="M62.5,9.4c0,0,5-5.1,12.3-4.6c0.6,0,0.8,0.9,0.3,1.2c-2,1-4.8,2.9-4.9,5C70,14.1,62.5,9.4,62.5,9.4z"/>
	<path class="st0" d="M51.5,11.7c0,0,4.5-5.6,11.8-5.9c0.6,0,0.9,0.8,0.4,1.1c-1.8,1.2-4.4,3.4-4.4,5.4
		C59.4,15.6,51.5,11.7,51.5,11.7z"/>
	<path class="st0" d="M69,11.2c0,0,5-5.1,12.3-4.6c0.6,0,0.8,0.9,0.3,1.2c-2,1-4.8,2.9-4.9,5C76.4,15.9,69,11.2,69,11.2z"/>
	<path class="st0" d="M24.2,6.2c0,0-4.8-5.3-12.1-5.2c-0.6,0-0.8,0.8-0.3,1.2c1.9,1.1,4.6,3.1,4.7,5.2C16.5,10.5,24.2,6.2,24.2,6.2z
		"/>
	<path class="st0" d="M34.3,7.7c0,0-4.3-5.7-11.6-6.2c-0.6,0-0.9,0.8-0.4,1.1c1.8,1.3,4.4,3.5,4.2,5.6C26.4,11.4,34.3,7.7,34.3,7.7z
		"/>
	<path class="st0" d="M43.5,12.3c0,0-2.6-6.7-9.5-9.1c-0.6-0.2-1.1,0.5-0.7,1c1.4,1.7,3.2,4.6,2.6,6.5
		C34.9,13.6,43.5,12.3,43.5,12.3z"/>
	<g>
		<path class="st0" d="M68.4,69.5c-24.1,0-44.4,13.3-49.2,30.9h98.4C112.8,82.8,92.5,69.5,68.4,69.5z"/>
	</g>
	<path class="st1" d="M68.4,69.5c-17.7,0-30.5,4.1-39.5,14.9c0,3.6,14.1,15.2,24.9,16H83c10.6-0.8,25.2-13.5,24.9-16
		C105.6,81,86.1,69.5,68.4,69.5z"/>
	<g>
		<path class="st0" d="M79.6,8.4c23.8,0,43.3,19.5,43.3,43.3c0,11.9-4.9,22.7-12.7,30.6S91.5,95,79.6,95H57.3
			c-23.8,0-43.3-19.5-43.3-43.3c0-11.9,4.9-22.7,12.7-30.6c7.9-7.8,18.7-12.7,30.6-12.7H79.6z"/>
	</g>
	<g>
		<path class="st2" d="M79.6,89.3c36.2,0,43.3-37.6,43.3-37.6c0,11.9-4.9,22.7-12.7,30.6S91.5,95,79.6,95H57.3
			c-23.8,0-43.3-19.5-43.3-43.3c0,0,7,37.6,43.3,37.6H79.6z"/>
	</g>
	<path class="st2" d="M54.4,29.4l-23.9,21c-6.6,5.8-5.4,23.9,28.4,30.2c6.5,1.2,12.8,1.2,19.3,0c30.5-5.5,35.6-24.8,28.5-30.6
		L81.3,29.1C74.1,23.2,61.3,23.3,54.4,29.4z"/>
	<path class="st1" d="M70.3,50.1c0,0,1.1,5.2-0.4,12.3c0,0,4.4-3.6,2.3-12.3C71.5,47.6,70.3,50.1,70.3,50.1z"/>
	<path class="st3" d="M114.6,27.3"/>
	<path class="st4" d="M73.5,51c0.9,0,1.5-0.8,1.2-1.6c-0.7-2.3-2.8-4-5.4-4s-4.7,1.7-5.4,4c-0.2,0.8,0.4,1.6,1.2,1.6L73.5,51z"/>
	<g id="XMLID_4_">
		<g>
			<path class="st5" d="M23.1,37.2l31.1-23c0,0-11.4-6.7-23.3-9.2c-7.1-1.5-14.7-1-18.5-0.5c-1.3,0.2-2.1,1.5-1.6,2.7L23.1,37.2z"/>
		</g>
	</g>
	<path class="st6" d="M35.2,17.4c0,0-6.9-8.2-19-8.9c-0.9-0.1-1.5,0.9-1.1,1.7c1.8,3,5.4,9.7,7.4,18.7
		C22.5,28.9,27.9,20.2,35.2,17.4z"/>
	<path class="st1" d="M35.2,17.4c0,0-6.9-8.2-19-8.9c-0.9-0.1-1.5,0.9-1.1,1.7c0,0,14.8,2.8,17.2,8.6C32.4,18.8,33.7,18,35.2,17.4z"
		/>
	<path class="st0" d="M38.5,30.9c0,0-10.4-5.9-30.8-10.2c-1.7-0.4-2.8,0-1.5,0.5c4.7,1.8,13.9,5.9,18.8,7.3
		C28.3,29.4,38.5,30.9,38.5,30.9z"/>
	<path class="st0" d="M34.3,27.9c0,0-9.2-7.3-28.2-15.8c-1.6-0.7-2.7-0.7-1.5,0c4.2,2.6,20.6,12.4,25.1,14.7
		C32.7,28.4,34.3,27.9,34.3,27.9z"/>
	<path class="st0" d="M40.1,32.6c0,0-11-4.6-31.7-6.6c-1.8-0.2-2.7,0.3-1.4,0.6c4.8,1.2,23.5,5.8,28.4,6.7
		C38.8,33.8,40.1,32.6,40.1,32.6z"/>
	<path class="st0" d="M113.3,6.4c0,0,5.2-4.9,12.5-4.2c0.6,0.1,0.8,0.9,0.2,1.2c-2,1-4.9,2.7-5.1,4.8
		C120.5,11.3,113.3,6.4,113.3,6.4z"/>
	<path class="st0" d="M103.1,7.2c0,0,4.7-5.4,12.1-5.3c0.6,0,0.8,0.8,0.3,1.2c-1.9,1.1-4.6,3.1-4.7,5.2
		C110.8,11.5,103.1,7.2,103.1,7.2z"/>
	<path class="st0" d="M93.3,11c0,0,3.2-6.4,10.3-8.2c0.6-0.2,1,0.6,0.6,1c-1.5,1.6-3.7,4.2-3.2,6.2C101.8,13.2,93.3,11,93.3,11z"/>
	<path class="st1" d="M74.7,64.4c0,0,2.3,2.5-0.8,4.2c-2.7,1.5-5.2,0-5.2,0l4.2-0.9L74.7,64.4z"/>
	<g id="XMLID_3_">
		<g>
			<path class="st5" d="M112.4,37.2l-31.1-23c0,0,11.4-6.7,23.3-9.2c7.1-1.5,14.7-1,18.5-0.5c1.3,0.2,2.1,1.5,1.6,2.7L112.4,37.2z"
				/>
		</g>
	</g>
	<path class="st6" d="M100.3,17.4c0,0,6.9-8.2,19-8.9c0.9-0.1,1.5,0.9,1.1,1.7c-1.8,3-5.4,9.7-7.4,18.7
		C112.9,28.9,107.6,20.2,100.3,17.4z"/>
	<path class="st1" d="M100.3,17.4c0,0,6.9-8.2,19-8.9c0.9-0.1,1.5,0.9,1.1,1.7c0,0-14.8,2.8-17.2,8.6
		C103.1,18.8,101.8,18,100.3,17.4z"/>
	<path class="st0" d="M99.3,31.6c0,0,9.4-7.4,28.8-14.9c1.6-0.6,2.7-0.5,1.5,0.2c-4.3,2.5-12.8,8-17.4,10.1
		C109.2,28.5,99.3,31.6,99.3,31.6z"/>
	<path class="st0" d="M102.1,29.7c0,0,7.6-9,24.6-20.9c1.4-1,2.5-1.2,1.5-0.2c-3.7,3.4-17.8,16.2-21.8,19.3
		C103.7,29.9,102.1,29.7,102.1,29.7z"/>
	<path class="st0" d="M96.5,33.2c0,0,10.4-5.9,30.8-10.3c1.7-0.4,2.8,0,1.5,0.5c-4.7,1.8-22.6,8.5-27.5,9.9
		C98,34.2,96.5,33.2,96.5,33.2z"/>
	<path class="st4" d="M70.1,68.9c-0.3,0-0.5,0-0.8,0c-0.5-0.1-0.9-0.5-0.8-1c0.1-0.5,0.5-0.9,1-0.8c1.4,0.1,2.9-0.3,3.3-1
		c0.1-0.1,0.4-0.5,0-1.4c-0.6-1.3-2-1.2-4.8-0.8C67.5,64,67,64,66.5,64.1c-3.1,0.3-4.6-1.8-5-3c-0.1-0.5,0.1-1,0.6-1.2
		c0.5-0.1,1,0.1,1.2,0.6c0.1,0.2,0.7,1.9,3,1.7c0.5-0.1,1-0.1,1.5-0.2c2.4-0.4,5.5-0.8,6.7,1.9c0.6,1.2,0.5,2.4-0.1,3.3
		C73.6,68.3,72,68.9,70.1,68.9z"/>
	<path class="st4" d="M69,63.7c-0.1,0-0.2,0-0.4-0.1c-0.5-0.2-0.7-0.7-0.5-1.2c2.7-6.6-0.1-12.3-0.1-12.3c-0.2-0.5-0.1-1,0.4-1.3
		c0.5-0.2,1-0.1,1.3,0.4c0.1,0.3,3.2,6.5,0.2,13.9C69.7,63.5,69.4,63.7,69,63.7z"/>
	<path class="st7" d="M109,47.5c0,2.6-0.6,5.1-1.6,7.3c-0.4,0.8-1.2,1.2-2.1,0.9c-3.3-1.2-7.5-1.8-12.3-1.8c-4.6,0-8.9,1-11.9,2.4
		c-0.8,0.4-1.7,0-2.1-0.7c-1.3-2.4-2-5.2-2-8.1c0-9.3,4.7-14.8,16-14.8C98.4,32.8,109,38.2,109,47.5z"/>
	<path class="st4" d="M98.9,49.4c-0.7,0-1.2-0.5-1.2-1.2c0-2.5-2-4.5-4.5-4.5c-2.5,0-4.5,2-4.5,4.5c0,0.7-0.5,1.2-1.2,1.2
		s-1.2-0.5-1.2-1.2c0-3.8,3.1-6.9,6.9-6.9c3.8,0,6.9,3.1,6.9,6.9C100.1,48.9,99.6,49.4,98.9,49.4z"/>
	<path class="st7" d="M59.9,47.5c0,2.6-0.6,5.1-1.6,7.3c-0.4,0.8-1.2,1.2-2.1,0.9c-3.3-1.2-7.5-1.8-12.3-1.8c-4.6,0-8.9,1-11.9,2.4
		c-0.8,0.4-1.7,0-2.1-0.7c-1.3-2.4-2-5.2-2-8.1c0-9.3,11-14.8,16-14.8C55.3,32.8,59.9,38.2,59.9,47.5z"/>
	<path class="st4" d="M49.7,49.4c-0.7,0-1.2-0.5-1.2-1.2c0-2.5-2-4.5-4.5-4.5c-2.5,0-4.5,2-4.5,4.5c0,0.7-0.5,1.2-1.2,1.2
		c-0.7,0-1.2-0.5-1.2-1.2c0-3.8,3.1-6.9,6.9-6.9s6.9,3.1,6.9,6.9C50.9,48.9,50.4,49.4,49.7,49.4z"/>
	<g>
		<path class="st2" d="M122.8,50.3c-6.8-0.2-11,1.9-11.2,2c-0.5,0.2-0.6,0.8-0.4,1.3c0.2,0.5,0.8,0.6,1.3,0.4c0.1,0,4-2,10.4-1.8
			c0-0.2,0-0.3,0-0.5C122.9,51.2,122.9,50.8,122.8,50.3z"/>
		<path class="st2" d="M111.6,56.5c-0.5,0.2-0.8,0.7-0.6,1.2c0.2,0.5,0.7,0.8,1.2,0.6c0.1,0,4.6-1.5,10.2-0.3
			c0.1-0.6,0.2-1.3,0.2-1.9C116.6,54.8,111.9,56.4,111.6,56.5z"/>
		<path class="st2" d="M111.7,60.2c-0.5,0.1-0.8,0.6-0.7,1.1c0.1,0.5,0.6,0.8,1.1,0.7c0,0,4-1,8.7,2.8c0.2-0.6,0.4-1.3,0.6-1.9
			C116.3,59.1,111.9,60.1,111.7,60.2z"/>
	</g>
	<path class="st4" d="M112,54.1c-0.3,0-0.6-0.2-0.8-0.5c-0.3-0.5-0.1-1,0.4-1.3c0.4-0.3,11-6.1,24.4-3.1c0.5,0.1,0.8,0.6,0.7,1.1
		c-0.1,0.5-0.6,0.8-1.1,0.7c-12.7-2.8-23,2.9-23.1,2.9C112.4,54,112.2,54.1,112,54.1z"/>
	<path class="st4" d="M111.9,58.3c-0.4,0-0.7-0.2-0.9-0.6c-0.2-0.5,0-1,0.5-1.2c0.5-0.2,11.2-4.4,19.6-0.2c0.5,0.2,0.7,0.8,0.4,1.3
		c-0.2,0.5-0.8,0.7-1.3,0.4c-7.7-3.8-18,0.3-18.1,0.3C112.1,58.3,112,58.3,111.9,58.3z"/>
	<path class="st4" d="M133.4,68.9c-0.2,0-0.4-0.1-0.6-0.2c-10.7-8.6-20.6-6.7-20.7-6.7c-0.5,0.1-1-0.2-1.1-0.7
		c-0.1-0.5,0.2-1,0.7-1.1c0.4-0.1,10.9-2.1,22.2,7.1c0.4,0.3,0.5,0.9,0.1,1.3C133.9,68.8,133.7,68.9,133.4,68.9z"/>
	<g>
		<path class="st2" d="M14,50.3c6.8-0.2,11,1.9,11.2,2c0.5,0.2,0.6,0.8,0.4,1.3c-0.2,0.5-0.8,0.6-1.3,0.4c-0.1,0-4-2-10.4-1.8
			c0-0.2,0-0.3,0-0.5C13.9,51.2,13.9,50.8,14,50.3z"/>
		<path class="st2" d="M25.2,56.5c0.5,0.2,0.8,0.7,0.6,1.2c-0.2,0.5-0.7,0.8-1.2,0.6c-0.1,0-4.6-1.5-10.2-0.3
			c-0.1-0.6-0.2-1.3-0.2-1.9C20.2,54.8,24.9,56.4,25.2,56.5z"/>
		<path class="st2" d="M25.1,60.2c0.5,0.1,0.8,0.6,0.7,1.1c-0.1,0.5-0.6,0.8-1.1,0.7c0,0-4-1-8.7,2.8c-0.2-0.6-0.4-1.3-0.6-1.9
			C20.5,59.1,24.9,60.1,25.1,60.2z"/>
	</g>
	<path class="st4" d="M25,54.1c-0.2,0-0.3,0-0.5-0.1c-0.1-0.1-10.3-5.8-23.1-2.9c-0.5,0.1-1-0.2-1.1-0.7c-0.1-0.5,0.2-1,0.7-1.1
		c13.5-3,24,2.9,24.4,3.1c0.5,0.3,0.6,0.8,0.4,1.3C25.6,53.9,25.3,54.1,25,54.1z"/>
	<path class="st4" d="M3.6,68.9c-0.3,0-0.5-0.1-0.7-0.4c-0.3-0.4-0.3-1,0.1-1.3c11.4-9.1,21.8-7.2,22.2-7.1c0.5,0.1,0.8,0.6,0.7,1.1
		c-0.1,0.5-0.6,0.8-1.1,0.7c-0.1,0-10.1-1.9-20.7,6.7C4,68.9,3.8,68.9,3.6,68.9z"/>
	<path class="st4" d="M6.3,58.3c-0.4,0-0.7-0.2-0.9-0.5c-0.2-0.5,0-1,0.5-1.3c10.7-5,19.2-0.2,19.5,0c0.5,0.3,0.6,0.8,0.3,1.3
		c-0.3,0.4-0.8,0.6-1.3,0.3l0,0c-0.1,0-8-4.5-17.8,0C6.5,58.3,6.4,58.3,6.3,58.3z"/>
	<path class="st8" d="M47.3,83.2c0,0-7.1-0.5-12.3,4.7c-0.4,0.4,0,1.2,0.6,1c2.2-0.5,5.5-1,7,0.4C44.8,91.6,47.3,83.2,47.3,83.2z"/>
	<path class="st9" d="M42.6,85.5c0,0-7.1,1.2-10.8,7.6c-0.3,0.5,0.3,1.2,0.8,0.9c2-1,5.1-2.3,6.9-1.3C42.2,94.2,42.6,85.5,42.6,85.5
		z"/>
	<path class="st8" d="M39.8,89c0,0-6.6,2.7-9,9.7c-0.2,0.6,0.5,1.1,1,0.7c1.7-1.4,4.5-3.3,6.5-2.7C41.3,97.6,39.8,89,39.8,89z"/>
	<path class="st8" d="M51.2,83.2c0,0,7.1-0.7,12.5,4.4c0.5,0.4,0.1,1.2-0.6,1.1c-2.2-0.4-5.5-0.8-7,0.6
		C53.9,91.5,51.2,83.2,51.2,83.2z"/>
	<path class="st9" d="M55.8,85.5c0,0,7.1,1.2,10.8,7.6c0.3,0.5-0.3,1.2-0.8,0.9c-2-1-5.1-2.3-6.9-1.3C56.2,94.2,55.8,85.5,55.8,85.5
		z"/>
	<path class="st8" d="M58.8,89c0,0,6.6,2.7,9,9.7c0.2,0.6-0.5,1.1-1,0.7c-1.7-1.4-4.5-3.3-6.5-2.7C57.3,97.6,58.8,89,58.8,89z"/>
	<g>
		<path class="st8" d="M48.9,83c9.1,0,16.6,7.4,16.6,16.6s-7.4,8-16.6,8s-16.6,1.2-16.6-8S39.7,83,48.9,83z"/>
	</g>
	<g>
		<path class="st9" d="M48.9,104.8c13.5,0,16.6-5.2,16.6-5.2c0,9.2-7.4,8-16.6,8s-16.6,1.2-16.6-8C32.3,99.6,35.5,104.8,48.9,104.8z
			"/>
	</g>
	<path class="st8" d="M87.3,83.2c0,0-7.1-0.5-12.3,4.7c-0.4,0.4,0,1.2,0.6,1c2.2-0.5,5.5-1,7,0.4C84.9,91.6,87.3,83.2,87.3,83.2z"/>
	<path class="st9" d="M82.7,85.5c0,0-7.1,1.2-10.8,7.6c-0.3,0.5,0.3,1.2,0.8,0.9c2-1,5.1-2.3,6.9-1.3C82.3,94.2,82.7,85.5,82.7,85.5
		z"/>
	<path class="st8" d="M79.9,89c0,0-6.6,2.7-9,9.7c-0.2,0.6,0.5,1.1,1,0.7c1.7-1.4,4.5-3.3,6.5-2.7C81.4,97.6,79.9,89,79.9,89z"/>
	<path class="st8" d="M91.3,83.2c0,0,7.1-0.7,12.5,4.4c0.5,0.4,0.1,1.2-0.6,1.1c-2.2-0.4-5.5-0.8-7,0.6C94,91.5,91.3,83.2,91.3,83.2
		z"/>
	<path class="st9" d="M95.9,85.5c0,0,7.1,1.2,10.8,7.6c0.3,0.5-0.3,1.2-0.8,0.9c-2-1-5.1-2.3-6.9-1.3C96.3,94.2,95.9,85.5,95.9,85.5
		z"/>
	<path class="st8" d="M98.9,89c0,0,6.6,2.7,9,9.7c0.2,0.6-0.5,1.1-1,0.7c-1.7-1.4-4.5-3.3-6.5-2.7C97.4,97.6,98.9,89,98.9,89z"/>
	<g>
		<path class="st8" d="M89,83c9.2,0,16.6,7.4,16.6,16.6s-7.4,8-16.6,8s-16.6,1.2-16.6-8S79.8,83,89,83z"/>
	</g>
	<g>
		<path class="st9" d="M89,104.8c13.5,0,16.6-5.2,16.6-5.2c0,9.2-7.4,8-16.6,8s-16.6,1.2-16.6-8C72.4,99.6,75.5,104.8,89,104.8z"/>
	</g>
</g>
</svg>
